:SAMPLES-PER-SECOND 30
:FULLY-SPECIFIED
:DEGREES
265
root  0.664495 18.149 22.7289 -118.168 3.371 -173.943
RightUpLeg  -45.5358 3.40798 12.5102
RightLeg  94.466 17.4021 -11.7249
RightFoot  -8.08631 -0.0764431 2.16693
RightToes  -5.82073e-011 -3.18055e-015 -2.98177e-016
Spine  28.5008 0.488104 7.83456
Spine1  -5.55432 4.56887 -22.1632
HEad  -24.2197 -8.99413 4.36146
LeftShoulder1  -3.88251e-019 9.70628e-020 -3.87848e-018
LeftArm  -4.14427 -12.5562 -71.955
LeftForeArm  26.3365 -7.66382 -6.91909
LeftHand  -15.3189 -12.8893 82.3926
RightShoulder  2.58694 7.19659 12.78
RightArm  -4.77819 20.6219 59.8491
RightForeArm  -12.3075 14.7677 -10.0929
RightHand  -7.92309 7.05795 -65.3819
LeftUpLeg  -81.3649 5.96968 -2.30585
LeftLeg  127.614 -23.4502 12.328
LeftFoot  -13.2795 -0.0540339 -12.1914
LeftToes  -2.27483e-011 -5.53417e-011 9.36564e-012
266
root  0.604847 18.1776 22.0419 -118.877 5.02669 -173.427
RightUpLeg  -42.9878 3.92855 10.9315
RightLeg  92.3841 16.9965 -11.6801
RightFoot  -8.49969 -0.112369 3.288
RightToes  -5.82073e-011 -3.18055e-015 -2.98177e-016
Spine  28.4001 0.220383 7.38237
Spine1  -4.314 4.5041 -21.6782
HEad  -24.083 -7.15054 4.20934
LeftShoulder1  -3.88251e-019 9.70628e-020 -3.87848e-018
LeftArm  -5.81285 -10.3986 -70.5868
LeftForeArm  25.7148 -5.98303 -6.79184
LeftHand  -15.2566 -12.5262 83.3316
RightShoulder  2.36275 6.94715 11.5877
RightArm  -3.00863 20.6739 64.174
RightForeArm  -11.6359 13.0719 -9.73645
RightHand  -8.51525 7.49092 -67.3864
LeftUpLeg  -78.2314 6.57203 -3.82449
LeftLeg  126.024 -23.5503 13.0822
LeftFoot  -12.0173 0.0990667 -13.9806
LeftToes  -2.27483e-011 -5.53417e-011 9.36564e-012
267
root  0.576158 18.2418 21.3017 -118.799 6.17462 -175.012
RightUpLeg  -41.2716 2.67943 8.58755
RightLeg  89.9976 16.5328 -11.5697
RightFoot  -9.222 -0.139523 4.69419
RightToes  -5.82073e-011 -3.18055e-015 -2.98177e-016
Spine  27.8805 -0.377069 5.25824
Spine1  -3.57156 3.18591 -18.984
HEad  -24.2391 -4.92212 4.6877
LeftShoulder1  -3.88251e-019 9.70628e-020 -3.87848e-018
LeftArm  -8.08578 -8.12035 -69.093
LeftForeArm  25.3945 -4.1085 -7.00027
LeftHand  -15.3464 -12.3401 84.2875
RightShoulder  2.14015 6.63739 10.454
RightArm  -1.40395 20.612 68.5638
RightForeArm  -10.0269 11.2372 -9.29591
RightHand  -9.2377 8.07852 -69.3788
LeftUpLeg  -76.3986 5.50389 -6.13759
LeftLeg  123.596 -23.3292 13.8556
LeftFoot  -10.2874 0.360806 -15.7016
LeftToes  -2.27483e-011 -5.53417e-011 9.36564e-012
268
root  0.584382 18.3095 20.5088 -118.244 6.21442 -178.263
RightUpLeg  -39.8542 -0.335053 6.35047
RightLeg  87.1251 15.9945 -11.3733
RightFoot  -9.21187 -0.177795 5.74266
RightToes  -5.82073e-011 -3.18055e-015 -2.98177e-016
Spine  27.0473 -1.25236 2.51649
Spine1  -3.16358 0.982289 -14.2754
HEad  -24.1798 -2.58246 5.77143
LeftShoulder1  -3.88251e-019 9.70628e-020 -3.87848e-018
LeftArm  -9.64845 -4.8948 -68.5066
LeftForeArm  25.3917 -3.43035 -6.54033
LeftHand  -15.1702 -12.3359 83.6277
RightShoulder  2.05945 6.49202 10.0782
RightArm  0.477534 20.368 71.2178
RightForeArm  -8.1132 10.7873 -8.42259
RightHand  -9.95353 8.74374 -70.8319
LeftUpLeg  -75.2971 2.72347 -8.29023
LeftLeg  120.773 -22.8831 14.5714
LeftFoot  -8.06385 0.745331 -17.3387
LeftToes  -2.27483e-011 -5.53417e-011 9.36564e-012
269
root  0.524372 18.3557 19.6869 -118.576 5.09177 178.802
RightUpLeg  -37.3103 -3.6256 5.06054
RightLeg  84.2917 15.4967 -10.3642
RightFoot  -7.93599 -0.279355 6.50576
RightToes  -5.82073e-011 -3.18055e-015 -2.98177e-016
Spine  26.8172 -2.18138 1.81138
Spine1  -2.73048 -0.831077 -9.6646
HEad  -23.6217 -0.795005 7.11312
LeftShoulder1  -3.88251e-019 9.70628e-020 -3.87848e-018
LeftArm  -10.7035 -1.7662 -68.8083
LeftForeArm  26.3137 -3.45654 -6.56047
LeftHand  -14.4189 -12.5524 79.993
RightShoulder  2.22727 6.62599 11.0992
RightArm  2.20614 19.7886 71.552
RightForeArm  -5.82713 11.7499 -7.58637
RightHand  -10.4541 9.16742 -71.9099
LeftUpLeg  -72.6536 -0.0476475 -9.23664
LeftLeg  117.975 -22.3648 15.218
LeftFoot  -7.48121 0.89969 -18.6086
LeftToes  -2.27483e-011 -5.53417e-011 9.36564e-012
270
root  0.364539 18.3859 18.9014 -120.155 3.74382 177.022
RightUpLeg  -33.7751 -6.05162 4.14288
RightLeg  82.0454 15.214 -8.8415
RightFoot  -5.61631 -0.412262 6.35606
RightToes  -5.82073e-011 -3.18055e-015 -2.98177e-016
Spine  27.6156 -2.79488 2.72886
Spine1  -2.28291 -1.72676 -6.0283
HEad  -23.0275 0.292119 8.1747
LeftShoulder1  -3.88251e-019 9.70628e-020 -3.87848e-018
LeftArm  -11.0327 1.49829 -69.6125
LeftForeArm  26.1542 -4.88823 -7.25445
LeftHand  -13.602 -13.1301 74.9039
RightShoulder  2.57903 6.92761 13.1467
RightArm  3.47854 18.8295 70.4554
RightForeArm  -2.8805 13.2179 -7.3388
RightHand  -10.6953 9.26303 -72.8052
LeftUpLeg  -68.1273 -1.01597 -9.90789
LeftLeg  115.36 -21.984 16.0438
LeftFoot  -8.49186 0.708855 -18.0533
LeftToes  -2.27483e-011 -5.53417e-011 9.36564e-012
271
root  0.111329 18.4392 18.1664 -121.729 2.86739 175.416
RightUpLeg  -30.9792 -8.8681 2.61894
RightLeg  80.6018 15.092 -7.93661
RightFoot  -3.49798 -0.54877 6.49798
RightToes  -5.82073e-011 -3.18055e-015 -2.98177e-016
Spine  28.5675 -3.21438 3.55696
Spine1  -2.29522 -2.36819 -2.68158
HEad  -22.8341 0.928156 8.45609
LeftShoulder1  -3.88251e-019 9.70628e-020 -3.87848e-018
LeftArm  -10.9408 6.40115 -70.9049
LeftForeArm  23.7529 -9.4979 -7.35996
LeftHand  -13.2912 -13.8047 71.5991
RightShoulder  2.93359 7.25791 15.076
RightArm  4.5597 17.803 68.9231
RightForeArm  0.355689 14.2607 -7.31007
RightHand  -10.8184 9.28844 -73.3405
LeftUpLeg  -63.6406 -1.93805 -11.2828
LeftLeg  112.503 -21.8262 17.5039
LeftFoot  -9.80461 0.508847 -18.5296
LeftToes  -2.27483e-011 -5.53417e-011 9.36564e-012
272
root  -0.152375 18.5803 17.4852 -122.676 2.30377 174.107
RightUpLeg  -29.6441 -12.5779 1.11368
RightLeg  80.1203 14.9993 -8.28946
RightFoot  -2.05069 -0.655734 6.67214
RightToes  -5.82073e-011 -3.18055e-015 -2.98177e-016
Spine  29.4866 -3.29053 3.9923
Spine1  -3.28754 -2.80618 0.943657
HEad  -23.09 1.40849 8.34767
LeftShoulder1  -3.88251e-019 9.70628e-020 -3.87848e-018
LeftArm  -9.44392 12.3943 -72.689
LeftForeArm  19.5548 -16.7608 -5.19552
LeftHand  -13.2502 -13.9076 71.13
RightShoulder  3.15884 7.5442 16.1198
RightArm  5.15447 17.1874 67.6726
RightForeArm  3.6593 14.1204 -6.96291
RightHand  -10.9953 9.46874 -73.5676
LeftUpLeg  -60.1815 -3.67254 -12.5654
LeftLeg  109.499 -21.571 19.1272
LeftFoot  -10.1188 0.477868 -19.3949
LeftToes  -2.27483e-011 -5.53417e-011 9.36564e-012
273
root  -0.446762 18.8045 16.8558 -123.931 1.8147 173.724
RightUpLeg  -28.9224 -16.4666 -0.132518
RightLeg  81.2709 15.0756 -9.24904
RightFoot  -1.5923 -0.76663 7.49125
RightToes  -5.82073e-011 -3.18055e-015 -2.98177e-016
Spine  31.0618 -3.36625 5.4544
Spine1  -4.85734 -2.73722 3.54074
HEad  -23.684 1.86127 8.73609
LeftShoulder1  -3.88251e-019 9.70628e-020 -3.87848e-018
LeftArm  -3.00699 16.7123 -74.4377
LeftForeArm  11.6383 -23.6246 0.557076
LeftHand  -12.8569 -13.2985 71.2687
RightShoulder  3.3167 7.7967 16.7368
RightArm  4.90515 17.0361 66.6538
RightForeArm  7.11595 13.0174 -6.46299
RightHand  -11.2538 9.7517 -73.8179
LeftUpLeg  -56.6797 -5.78853 -13.2206
LeftLeg  106.463 -21.1961 20.8055
LeftFoot  -8.60258 0.658172 -17.2087
LeftToes  -2.27483e-011 -5.53417e-011 9.36564e-012
274
root  -0.771819 19.0025 16.3466 -124.892 2.00606 174.829
RightUpLeg  -30.1153 -18.5447 -0.81322
RightLeg  84.9146 15.6045 -10.0645
RightFoot  -1.79534 -0.65827 6.54156
RightToes  -5.82073e-011 -3.18055e-015 -2.98177e-016
Spine  32.3447 -3.16677 7.83808
Spine1  -6.07462 -1.81894 4.20238
HEad  -24.3737 2.29497 9.61335
LeftShoulder1  -3.88251e-019 9.70628e-020 -3.87848e-018
LeftArm  -0.903346 17.8929 -74.9448
LeftForeArm  8.99172 -27.8816 5.72383
LeftHand  -12.0198 -12.6251 69.6407
RightShoulder  3.42138 8.00898 17.0613
RightArm  4.11391 16.6897 65.6368
RightForeArm  10.1571 12.0764 -6.45725
RightHand  -11.4925 9.99374 -74.1104
LeftUpLeg  -53.9695 -6.06067 -13.4716
LeftLeg  104.272 -20.7431 21.8075
LeftFoot  -7.94083 0.720186 -16.355
LeftToes  -2.27483e-011 -5.53417e-011 9.36564e-012
